<mxfile host="app.diagrams.net" modified="2023-11-12T16:59:06.650Z" agent="Mozilla/5.0 (Windows NT 10.0; Win64; x64) AppleWebKit/537.36 (KHTML, like Gecko) Chrome/119.0.0.0 Safari/537.36" etag="LehQr-pv8hL0Z0E_IfAX" version="22.1.0" type="device">
  <diagram id="C5RBs43oDa-KdzZeNtuy" name="Page-1">
    <mxGraphModel dx="1434" dy="772" grid="1" gridSize="10" guides="1" tooltips="1" connect="1" arrows="1" fold="1" page="1" pageScale="1" pageWidth="827" pageHeight="1169" math="0" shadow="0">
      <root>
        <mxCell id="WIyWlLk6GJQsqaUBKTNV-0" />
        <mxCell id="WIyWlLk6GJQsqaUBKTNV-1" parent="WIyWlLk6GJQsqaUBKTNV-0" />
        <mxCell id="QLZqTU9f5JTsoR75KZx5-27" style="edgeStyle=orthogonalEdgeStyle;rounded=0;orthogonalLoop=1;jettySize=auto;html=1;" edge="1" parent="WIyWlLk6GJQsqaUBKTNV-1" source="QLZqTU9f5JTsoR75KZx5-0" target="QLZqTU9f5JTsoR75KZx5-4">
          <mxGeometry relative="1" as="geometry" />
        </mxCell>
        <mxCell id="QLZqTU9f5JTsoR75KZx5-0" value="Client" style="swimlane;fontStyle=1;align=center;verticalAlign=top;childLayout=stackLayout;horizontal=1;startSize=26;horizontalStack=0;resizeParent=1;resizeParentMax=0;resizeLast=0;collapsible=1;marginBottom=0;whiteSpace=wrap;html=1;" vertex="1" parent="WIyWlLk6GJQsqaUBKTNV-1">
          <mxGeometry x="280" y="280" width="160" height="34" as="geometry" />
        </mxCell>
        <mxCell id="QLZqTU9f5JTsoR75KZx5-2" value="" style="line;strokeWidth=1;fillColor=none;align=left;verticalAlign=middle;spacingTop=-1;spacingLeft=3;spacingRight=3;rotatable=0;labelPosition=right;points=[];portConstraint=eastwest;strokeColor=inherit;" vertex="1" parent="QLZqTU9f5JTsoR75KZx5-0">
          <mxGeometry y="26" width="160" height="8" as="geometry" />
        </mxCell>
        <mxCell id="QLZqTU9f5JTsoR75KZx5-4" value="Shape" style="swimlane;fontStyle=1;align=center;verticalAlign=top;childLayout=stackLayout;horizontal=1;startSize=26;horizontalStack=0;resizeParent=1;resizeParentMax=0;resizeLast=0;collapsible=1;marginBottom=0;whiteSpace=wrap;html=1;" vertex="1" parent="WIyWlLk6GJQsqaUBKTNV-1">
          <mxGeometry x="280" y="410" width="160" height="60" as="geometry" />
        </mxCell>
        <mxCell id="QLZqTU9f5JTsoR75KZx5-6" value="" style="line;strokeWidth=1;fillColor=none;align=left;verticalAlign=middle;spacingTop=-1;spacingLeft=3;spacingRight=3;rotatable=0;labelPosition=right;points=[];portConstraint=eastwest;strokeColor=inherit;" vertex="1" parent="QLZqTU9f5JTsoR75KZx5-4">
          <mxGeometry y="26" width="160" height="8" as="geometry" />
        </mxCell>
        <mxCell id="QLZqTU9f5JTsoR75KZx5-7" value="abstract Draw ()" style="text;strokeColor=none;fillColor=none;align=left;verticalAlign=top;spacingLeft=4;spacingRight=4;overflow=hidden;rotatable=0;points=[[0,0.5],[1,0.5]];portConstraint=eastwest;whiteSpace=wrap;html=1;" vertex="1" parent="QLZqTU9f5JTsoR75KZx5-4">
          <mxGeometry y="34" width="160" height="26" as="geometry" />
        </mxCell>
        <mxCell id="QLZqTU9f5JTsoR75KZx5-8" value="Circle" style="swimlane;fontStyle=1;align=center;verticalAlign=top;childLayout=stackLayout;horizontal=1;startSize=26;horizontalStack=0;resizeParent=1;resizeParentMax=0;resizeLast=0;collapsible=1;marginBottom=0;whiteSpace=wrap;html=1;" vertex="1" parent="WIyWlLk6GJQsqaUBKTNV-1">
          <mxGeometry x="40" y="470" width="160" height="60" as="geometry" />
        </mxCell>
        <mxCell id="QLZqTU9f5JTsoR75KZx5-9" value="" style="line;strokeWidth=1;fillColor=none;align=left;verticalAlign=middle;spacingTop=-1;spacingLeft=3;spacingRight=3;rotatable=0;labelPosition=right;points=[];portConstraint=eastwest;strokeColor=inherit;" vertex="1" parent="QLZqTU9f5JTsoR75KZx5-8">
          <mxGeometry y="26" width="160" height="8" as="geometry" />
        </mxCell>
        <mxCell id="QLZqTU9f5JTsoR75KZx5-10" value="override Draw ()" style="text;strokeColor=none;fillColor=none;align=left;verticalAlign=top;spacingLeft=4;spacingRight=4;overflow=hidden;rotatable=0;points=[[0,0.5],[1,0.5]];portConstraint=eastwest;whiteSpace=wrap;html=1;" vertex="1" parent="QLZqTU9f5JTsoR75KZx5-8">
          <mxGeometry y="34" width="160" height="26" as="geometry" />
        </mxCell>
        <mxCell id="QLZqTU9f5JTsoR75KZx5-11" value="Square" style="swimlane;fontStyle=1;align=center;verticalAlign=top;childLayout=stackLayout;horizontal=1;startSize=26;horizontalStack=0;resizeParent=1;resizeParentMax=0;resizeLast=0;collapsible=1;marginBottom=0;whiteSpace=wrap;html=1;" vertex="1" parent="WIyWlLk6GJQsqaUBKTNV-1">
          <mxGeometry x="40" y="350" width="160" height="60" as="geometry" />
        </mxCell>
        <mxCell id="QLZqTU9f5JTsoR75KZx5-12" value="" style="line;strokeWidth=1;fillColor=none;align=left;verticalAlign=middle;spacingTop=-1;spacingLeft=3;spacingRight=3;rotatable=0;labelPosition=right;points=[];portConstraint=eastwest;strokeColor=inherit;" vertex="1" parent="QLZqTU9f5JTsoR75KZx5-11">
          <mxGeometry y="26" width="160" height="8" as="geometry" />
        </mxCell>
        <mxCell id="QLZqTU9f5JTsoR75KZx5-13" value="override Draw ()" style="text;strokeColor=none;fillColor=none;align=left;verticalAlign=top;spacingLeft=4;spacingRight=4;overflow=hidden;rotatable=0;points=[[0,0.5],[1,0.5]];portConstraint=eastwest;whiteSpace=wrap;html=1;" vertex="1" parent="QLZqTU9f5JTsoR75KZx5-11">
          <mxGeometry y="34" width="160" height="26" as="geometry" />
        </mxCell>
        <mxCell id="QLZqTU9f5JTsoR75KZx5-14" value="IRenderer" style="swimlane;fontStyle=1;align=center;verticalAlign=top;childLayout=stackLayout;horizontal=1;startSize=26;horizontalStack=0;resizeParent=1;resizeParentMax=0;resizeLast=0;collapsible=1;marginBottom=0;whiteSpace=wrap;html=1;" vertex="1" parent="WIyWlLk6GJQsqaUBKTNV-1">
          <mxGeometry x="520" y="397" width="160" height="86" as="geometry" />
        </mxCell>
        <mxCell id="QLZqTU9f5JTsoR75KZx5-15" value="" style="line;strokeWidth=1;fillColor=none;align=left;verticalAlign=middle;spacingTop=-1;spacingLeft=3;spacingRight=3;rotatable=0;labelPosition=right;points=[];portConstraint=eastwest;strokeColor=inherit;" vertex="1" parent="QLZqTU9f5JTsoR75KZx5-14">
          <mxGeometry y="26" width="160" height="8" as="geometry" />
        </mxCell>
        <mxCell id="QLZqTU9f5JTsoR75KZx5-16" value="RenderCircle ()" style="text;strokeColor=none;fillColor=none;align=left;verticalAlign=top;spacingLeft=4;spacingRight=4;overflow=hidden;rotatable=0;points=[[0,0.5],[1,0.5]];portConstraint=eastwest;whiteSpace=wrap;html=1;" vertex="1" parent="QLZqTU9f5JTsoR75KZx5-14">
          <mxGeometry y="34" width="160" height="26" as="geometry" />
        </mxCell>
        <mxCell id="QLZqTU9f5JTsoR75KZx5-17" value="RenderSquare ()" style="text;strokeColor=none;fillColor=none;align=left;verticalAlign=top;spacingLeft=4;spacingRight=4;overflow=hidden;rotatable=0;points=[[0,0.5],[1,0.5]];portConstraint=eastwest;whiteSpace=wrap;html=1;" vertex="1" parent="QLZqTU9f5JTsoR75KZx5-14">
          <mxGeometry y="60" width="160" height="26" as="geometry" />
        </mxCell>
        <mxCell id="QLZqTU9f5JTsoR75KZx5-18" value="VectorRenderer" style="swimlane;fontStyle=1;align=center;verticalAlign=top;childLayout=stackLayout;horizontal=1;startSize=26;horizontalStack=0;resizeParent=1;resizeParentMax=0;resizeLast=0;collapsible=1;marginBottom=0;whiteSpace=wrap;html=1;" vertex="1" parent="WIyWlLk6GJQsqaUBKTNV-1">
          <mxGeometry x="770" y="457" width="160" height="86" as="geometry" />
        </mxCell>
        <mxCell id="QLZqTU9f5JTsoR75KZx5-19" value="" style="line;strokeWidth=1;fillColor=none;align=left;verticalAlign=middle;spacingTop=-1;spacingLeft=3;spacingRight=3;rotatable=0;labelPosition=right;points=[];portConstraint=eastwest;strokeColor=inherit;" vertex="1" parent="QLZqTU9f5JTsoR75KZx5-18">
          <mxGeometry y="26" width="160" height="8" as="geometry" />
        </mxCell>
        <mxCell id="QLZqTU9f5JTsoR75KZx5-20" value="RenderCircle ()" style="text;strokeColor=none;fillColor=none;align=left;verticalAlign=top;spacingLeft=4;spacingRight=4;overflow=hidden;rotatable=0;points=[[0,0.5],[1,0.5]];portConstraint=eastwest;whiteSpace=wrap;html=1;" vertex="1" parent="QLZqTU9f5JTsoR75KZx5-18">
          <mxGeometry y="34" width="160" height="26" as="geometry" />
        </mxCell>
        <mxCell id="QLZqTU9f5JTsoR75KZx5-21" value="RenderSquare ()" style="text;strokeColor=none;fillColor=none;align=left;verticalAlign=top;spacingLeft=4;spacingRight=4;overflow=hidden;rotatable=0;points=[[0,0.5],[1,0.5]];portConstraint=eastwest;whiteSpace=wrap;html=1;" vertex="1" parent="QLZqTU9f5JTsoR75KZx5-18">
          <mxGeometry y="60" width="160" height="26" as="geometry" />
        </mxCell>
        <mxCell id="QLZqTU9f5JTsoR75KZx5-32" style="edgeStyle=orthogonalEdgeStyle;rounded=0;orthogonalLoop=1;jettySize=auto;html=1;entryX=0.5;entryY=0;entryDx=0;entryDy=0;endArrow=block;endFill=0;" edge="1" parent="WIyWlLk6GJQsqaUBKTNV-1" source="QLZqTU9f5JTsoR75KZx5-22" target="QLZqTU9f5JTsoR75KZx5-14">
          <mxGeometry relative="1" as="geometry">
            <Array as="points">
              <mxPoint x="600" y="370" />
            </Array>
          </mxGeometry>
        </mxCell>
        <mxCell id="QLZqTU9f5JTsoR75KZx5-22" value="RasterRenderer" style="swimlane;fontStyle=1;align=center;verticalAlign=top;childLayout=stackLayout;horizontal=1;startSize=26;horizontalStack=0;resizeParent=1;resizeParentMax=0;resizeLast=0;collapsible=1;marginBottom=0;whiteSpace=wrap;html=1;" vertex="1" parent="WIyWlLk6GJQsqaUBKTNV-1">
          <mxGeometry x="770" y="337" width="160" height="86" as="geometry" />
        </mxCell>
        <mxCell id="QLZqTU9f5JTsoR75KZx5-23" value="" style="line;strokeWidth=1;fillColor=none;align=left;verticalAlign=middle;spacingTop=-1;spacingLeft=3;spacingRight=3;rotatable=0;labelPosition=right;points=[];portConstraint=eastwest;strokeColor=inherit;" vertex="1" parent="QLZqTU9f5JTsoR75KZx5-22">
          <mxGeometry y="26" width="160" height="8" as="geometry" />
        </mxCell>
        <mxCell id="QLZqTU9f5JTsoR75KZx5-24" value="RenderCircle ()" style="text;strokeColor=none;fillColor=none;align=left;verticalAlign=top;spacingLeft=4;spacingRight=4;overflow=hidden;rotatable=0;points=[[0,0.5],[1,0.5]];portConstraint=eastwest;whiteSpace=wrap;html=1;" vertex="1" parent="QLZqTU9f5JTsoR75KZx5-22">
          <mxGeometry y="34" width="160" height="26" as="geometry" />
        </mxCell>
        <mxCell id="QLZqTU9f5JTsoR75KZx5-25" value="RenderSquare ()" style="text;strokeColor=none;fillColor=none;align=left;verticalAlign=top;spacingLeft=4;spacingRight=4;overflow=hidden;rotatable=0;points=[[0,0.5],[1,0.5]];portConstraint=eastwest;whiteSpace=wrap;html=1;" vertex="1" parent="QLZqTU9f5JTsoR75KZx5-22">
          <mxGeometry y="60" width="160" height="26" as="geometry" />
        </mxCell>
        <mxCell id="QLZqTU9f5JTsoR75KZx5-29" style="edgeStyle=orthogonalEdgeStyle;rounded=0;orthogonalLoop=1;jettySize=auto;html=1;endArrow=diamond;endFill=0;" edge="1" parent="WIyWlLk6GJQsqaUBKTNV-1" source="QLZqTU9f5JTsoR75KZx5-16" target="QLZqTU9f5JTsoR75KZx5-4">
          <mxGeometry relative="1" as="geometry">
            <Array as="points">
              <mxPoint x="500" y="440" />
              <mxPoint x="500" y="440" />
            </Array>
          </mxGeometry>
        </mxCell>
        <mxCell id="QLZqTU9f5JTsoR75KZx5-31" style="edgeStyle=orthogonalEdgeStyle;rounded=0;orthogonalLoop=1;jettySize=auto;html=1;endArrow=block;endFill=0;" edge="1" parent="WIyWlLk6GJQsqaUBKTNV-1" target="QLZqTU9f5JTsoR75KZx5-14">
          <mxGeometry relative="1" as="geometry">
            <mxPoint x="770" y="490" as="sourcePoint" />
            <Array as="points">
              <mxPoint x="770" y="510" />
              <mxPoint x="600" y="510" />
            </Array>
          </mxGeometry>
        </mxCell>
        <mxCell id="QLZqTU9f5JTsoR75KZx5-33" style="edgeStyle=orthogonalEdgeStyle;rounded=0;orthogonalLoop=1;jettySize=auto;html=1;entryX=0.25;entryY=0;entryDx=0;entryDy=0;endArrow=block;endFill=0;" edge="1" parent="WIyWlLk6GJQsqaUBKTNV-1" target="QLZqTU9f5JTsoR75KZx5-4">
          <mxGeometry relative="1" as="geometry">
            <mxPoint x="200" y="360" as="sourcePoint" />
            <Array as="points">
              <mxPoint x="200" y="360" />
              <mxPoint x="320" y="360" />
            </Array>
          </mxGeometry>
        </mxCell>
        <mxCell id="QLZqTU9f5JTsoR75KZx5-34" style="edgeStyle=orthogonalEdgeStyle;rounded=0;orthogonalLoop=1;jettySize=auto;html=1;endArrow=block;endFill=0;" edge="1" parent="WIyWlLk6GJQsqaUBKTNV-1" source="QLZqTU9f5JTsoR75KZx5-10" target="QLZqTU9f5JTsoR75KZx5-4">
          <mxGeometry relative="1" as="geometry">
            <Array as="points">
              <mxPoint x="320" y="517" />
            </Array>
          </mxGeometry>
        </mxCell>
      </root>
    </mxGraphModel>
  </diagram>
</mxfile>
